<svg viewBox="0 0 960 620" xmlns="http://www.w3.org/2000/svg" font-family="Segoe UI, Helvetica, Arial, sans-serif">
  <defs>
    <marker id="arrow" markerWidth="10" markerHeight="10" refX="8" refY="3" orient="auto" markerUnits="strokeWidth">
      <path d="M0,0 L0,6 L9,3 z" fill="#475569"/>
    </marker>
  </defs>

  <rect x="0" y="0" width="960" height="620" fill="#ffffff"/>

  <text x="480" y="34" text-anchor="middle" font-size="20" font-weight="700" fill="#0f172a">Wazuh Blue Team Detection Lab — Architecture</text>
  <text x="480" y="54" text-anchor="middle" font-size="12" fill="#64748b">Docker Compose deployment · TLS-secured agent-manager communication</text>

  <!-- Monitored endpoints group -->
  <rect x="30" y="100" width="220" height="200" rx="10" fill="#f8fafc" stroke="#cbd5e1" stroke-width="1.5" stroke-dasharray="4 3"/>
  <text x="140" y="122" text-anchor="middle" font-size="12" font-weight="700" fill="#334155">MONITORED ENDPOINTS</text>

  <rect x="55" y="140" width="170" height="60" rx="8" fill="#e0f2fe" stroke="#0284c7" stroke-width="1.5"/>
  <text x="140" y="165" text-anchor="middle" font-size="13" font-weight="600" fill="#0c4a6e">Ubuntu VM</text>
  <text x="140" y="182" text-anchor="middle" font-size="11" fill="#0c4a6e">Wazuh Agent + FIM</text>

  <rect x="55" y="220" width="170" height="60" rx="8" fill="#fef2f2" stroke="#dc2626" stroke-width="1.5"/>
  <text x="140" y="245" text-anchor="middle" font-size="13" font-weight="600" fill="#7f1d1d">Kali Linux</text>
  <text x="140" y="262" text-anchor="middle" font-size="11" fill="#7f1d1d">Traffic / attack simulation</text>

  <!-- Docker Compose boundary -->
  <rect x="330" y="80" width="600" height="460" rx="10" fill="#f8fafc" stroke="#94a3b8" stroke-width="1.5" stroke-dasharray="4 3"/>
  <text x="630" y="102" text-anchor="middle" font-size="12" font-weight="700" fill="#334155">DOCKER COMPOSE NETWORK</text>

  <!-- Wazuh Manager -->
  <rect x="360" y="130" width="250" height="150" rx="8" fill="#eef2ff" stroke="#4338ca" stroke-width="1.5"/>
  <text x="485" y="153" text-anchor="middle" font-size="14" font-weight="700" fill="#312e81">Wazuh Manager</text>

  <rect x="375" y="165" width="220" height="30" rx="5" fill="#ffffff" stroke="#c7d2fe" stroke-width="1"/>
  <text x="485" y="184" text-anchor="middle" font-size="11" fill="#312e81">local_rules.xml — custom &amp; correlation rules</text>

  <rect x="375" y="200" width="220" height="30" rx="5" fill="#ffffff" stroke="#c7d2fe" stroke-width="1"/>
  <text x="485" y="219" text-anchor="middle" font-size="11" fill="#312e81">FIM engine (rules 550/553/554)</text>

  <rect x="375" y="235" width="220" height="30" rx="5" fill="#ffffff" stroke="#c7d2fe" stroke-width="1"/>
  <text x="485" y="254" text-anchor="middle" font-size="11" fill="#312e81">Active Response module</text>

  <!-- Wazuh Indexer -->
  <rect x="680" y="130" width="220" height="90" rx="8" fill="#ecfdf5" stroke="#059669" stroke-width="1.5"/>
  <text x="790" y="155" text-anchor="middle" font-size="14" font-weight="700" fill="#065f46">Wazuh Indexer</text>
  <text x="790" y="175" text-anchor="middle" font-size="11" fill="#065f46">Alert &amp; event storage</text>
  <text x="790" y="192" text-anchor="middle" font-size="11" fill="#065f46">MITRE ATT&amp;CK-mapped alerts</text>

  <!-- Wazuh Dashboard -->
  <rect x="680" y="250" width="220" height="90" rx="8" fill="#fff7ed" stroke="#ea580c" stroke-width="1.5"/>
  <text x="790" y="275" text-anchor="middle" font-size="14" font-weight="700" fill="#7c2d12">Wazuh Dashboard</text>
  <text x="790" y="295" text-anchor="middle" font-size="11" fill="#7c2d12">Visualization &amp;</text>
  <text x="790" y="311" text-anchor="middle" font-size="11" fill="#7c2d12">investigation reports</text>

  <!-- Investigation reports output -->
  <rect x="380" y="340" width="500" height="150" rx="8" fill="#fafafa" stroke="#a1a1aa" stroke-width="1.5"/>
  <text x="630" y="365" text-anchor="middle" font-size="13" font-weight="700" fill="#3f3f46">Structured Investigation Reports</text>

  <rect x="400" y="380" width="110" height="80" rx="6" fill="#ffffff" stroke="#d4d4d8" stroke-width="1"/>
  <text x="455" y="405" text-anchor="middle" font-size="10.5" fill="#52525b">FIM</text>
  <text x="455" y="420" text-anchor="middle" font-size="10.5" fill="#52525b">investigation</text>

  <rect x="525" y="380" width="130" height="80" rx="6" fill="#ffffff" stroke="#d4d4d8" stroke-width="1"/>
  <text x="590" y="405" text-anchor="middle" font-size="10.5" fill="#52525b">Custom rule</text>
  <text x="590" y="420" text-anchor="middle" font-size="10.5" fill="#52525b">development</text>

  <rect x="670" y="380" width="130" height="80" rx="6" fill="#ffffff" stroke="#d4d4d8" stroke-width="1"/>
  <text x="735" y="405" text-anchor="middle" font-size="10.5" fill="#52525b">Correlation</text>
  <text x="735" y="420" text-anchor="middle" font-size="10.5" fill="#52525b">rules</text>

  <rect x="815" y="380" width="45" height="80" rx="6" fill="#ffffff" stroke="#d4d4d8" stroke-width="1"/>
  <text x="837" y="405" text-anchor="middle" font-size="9.5" fill="#52525b">AR</text>
  <text x="837" y="420" text-anchor="middle" font-size="9.5" fill="#52525b">gap</text>

  <!-- Note on Active Response gap -->
  <rect x="330" y="555" width="600" height="45" rx="6" fill="#fffbeb" stroke="#d97706" stroke-width="1.2"/>
  <text x="630" y="575" text-anchor="middle" font-size="11" font-weight="600" fill="#92400e">Known gap: Active Response manually validated but not confirmed end-to-end —</text>
  <text x="630" y="590" text-anchor="middle" font-size="11" fill="#92400e">automatic triggering currently blocked by a log-collection configuration issue</text>

  <!-- Arrows -->
  <path d="M250,170 L360,170" stroke="#475569" stroke-width="1.8" fill="none" marker-end="url(#arrow)"/>
  <path d="M250,250 L360,220" stroke="#475569" stroke-width="1.8" fill="none" marker-end="url(#arrow)"/>
  <text x="300" y="160" font-size="9.5" fill="#64748b">agent (TLS)</text>

  <path d="M610,190 L680,175" stroke="#475569" stroke-width="1.8" fill="none" marker-end="url(#arrow)"/>
  <path d="M790,220 L790,250" stroke="#475569" stroke-width="1.8" fill="none" marker-end="url(#arrow)"/>

  <path d="M485,280 L485,340" stroke="#475569" stroke-width="1.8" fill="none" marker-end="url(#arrow)"/>
  <path d="M790,340 L790,368 L630,368" stroke="#475569" stroke-width="1.8" fill="none" marker-end="url(#arrow)" stroke-dasharray="3 3"/>
</svg>
